<svg xmlns="http://www.w3.org/2000/svg" xmlns:xlink="http://www.w3.org/1999/xlink" version="1.1" width="24" height="24"><rect id="backgroundrect" width="100%" height="100%" x="0" y="0" fill="none" stroke="none"/><g class="currentLayer" style=""><title>Layer 1</title><path d="M15,14.58333334326744 V12.58333334326744 C15,11.473333343267441 14.1,10.58333334326744 13,10.58333334326744 H11 V8.58333334326744 H15 V6.583333343267441 H9 V12.58333334326744 H13 V14.58333334326744 H9 V16.58333334326744 H13 A2,2 0 0 0 15,14.58333334326744 M19,18.58333334326744 H5 V4.583333343267441 H19 M19,2.583333343267441 H5 A2,2 0 0 0 3,4.583333343267441 V18.58333334326744 A2,2 0 0 0 5,20.58333334326744 H19 A2,2 0 0 0 21,18.58333334326744 V4.583333343267441 A2,2 0 0 0 19,2.583333343267441 z" id="svg_1" class="selected" fill-opacity="1" fill="#8c898d"/></g></svg>